<?xml version="1.0" standalone="no"?>
<!DOCTYPE svg PUBLIC "-//W3C//DTD SVG 20010904//EN"
 "http://www.w3.org/TR/2001/REC-SVG-20010904/DTD/svg10.dtd">
<svg version="1.0" xmlns="http://www.w3.org/2000/svg"
 width="1628.000000pt" height="1628.000000pt" viewBox="0 0 1628.000000 1628.000000"
 preserveAspectRatio="xMidYMid meet">

<g transform="translate(0.000000,1628.000000) scale(0.100000,-0.100000)"
fill="#000000" stroke="none">
<path d="M0 8140 l0 -8140 8140 0 8140 0 0 8140 0 8140 -8140 0 -8140 0 0
-8140z m7351 4453 c139 -65 243 -218 285 -417 22 -105 20 -306 -5 -447 -67
-376 -304 -874 -621 -1304 -145 -198 -357 -443 -467 -543 l-67 -60 -7 -209
c-9 -248 -12 -493 -7 -499 2 -2 40 67 83 153 122 242 225 362 370 433 271 133
484 -37 502 -402 6 -115 -5 -214 -37 -317 -18 -60 -18 -61 1 -61 37 0 193 71
266 122 152 105 313 310 434 551 l59 118 -16 37 c-79 178 -113 352 -94 474 33
215 216 316 300 165 45 -79 37 -224 -21 -398 -17 -51 -33 -105 -35 -119 -4
-33 55 -168 135 -310 35 -63 93 -169 127 -235 34 -66 67 -121 73 -123 16 -5
194 56 286 98 157 72 253 145 355 270 217 267 299 351 433 445 277 193 629
213 1126 64 218 -65 409 -148 911 -394 261 -128 529 -257 595 -286 399 -175
731 -263 1042 -276 466 -20 928 147 1128 407 178 232 192 544 34 784 -40 60
-49 96 -26 96 34 0 101 -111 143 -235 21 -64 28 -105 32 -202 2 -68 7 -123 9
-123 2 0 17 7 32 15 21 10 64 14 158 14 148 0 220 17 316 76 32 19 62 35 66
35 4 0 13 -11 19 -25 22 -49 49 -36 197 98 11 10 21 14 23 9 1 -4 -11 -46 -26
-93 -20 -61 -45 -108 -85 -162 -32 -42 -57 -81 -57 -87 0 -6 18 -17 41 -26 45
-19 42 -26 -16 -44 -109 -32 -108 -35 15 -40 91 -4 115 -8 115 -19 0 -8 -47
-42 -104 -75 -58 -34 -106 -66 -108 -72 -2 -6 26 -24 62 -39 36 -15 65 -32 65
-37 0 -4 -67 -8 -150 -8 -82 0 -150 -4 -150 -9 0 -8 81 -51 98 -51 4 0 13 -5
20 -12 9 -9 3 -17 -23 -35 -19 -13 -35 -27 -35 -31 0 -4 29 -25 65 -47 59 -37
82 -65 53 -65 -6 0 -49 7 -96 16 -46 8 -85 14 -87 12 -7 -6 22 -35 89 -88 38
-30 64 -56 58 -58 -5 -1 -70 18 -142 43 -73 25 -135 43 -139 40 -3 -4 6 -17
22 -30 15 -13 27 -26 27 -29 0 -2 -13 -9 -30 -15 -32 -11 -38 -25 -17 -44 6
-7 54 -49 104 -95 59 -54 90 -88 86 -98 -3 -8 -10 -14 -15 -14 -10 0 -106 45
-312 146 -60 30 -113 54 -118 54 -22 0 -4 -28 35 -52 89 -56 118 -89 131 -148
12 -52 16 -58 91 -115 94 -71 87 -76 -53 -45 -191 43 -304 86 -399 151 -69 48
-68 44 50 -111 47 -63 55 -80 37 -80 -6 0 -65 23 -131 50 -67 28 -125 50 -130
48 -5 -2 15 -38 46 -80 54 -75 65 -101 45 -113 -5 -3 -73 37 -150 90 -78 53
-147 95 -154 92 -7 -3 -18 -23 -24 -45 -7 -22 -19 -57 -28 -77 l-15 -38 -38
37 c-20 20 -42 36 -49 36 -7 0 -12 5 -12 12 0 6 -3 9 -6 6 -3 -3 15 -68 40
-144 25 -76 43 -140 40 -143 -7 -8 -81 78 -104 121 -11 21 -30 42 -41 49 -21
11 -65 8 -100 -6 -9 -3 -30 6 -54 25 -21 16 -41 30 -45 30 -4 0 -15 -36 -24
-80 -10 -44 -21 -80 -26 -80 -9 0 -20 50 -20 90 0 56 -8 63 -48 38 -32 -20
-36 -20 -47 -4 -7 9 -15 35 -19 58 -6 36 -9 40 -21 27 -8 -8 -23 -39 -33 -69
-27 -78 -39 -74 -47 14 -7 76 -24 104 -26 44 -1 -18 -4 -44 -8 -58 -6 -22 -8
-23 -17 -8 -13 24 -27 12 -58 -49 -14 -29 -30 -53 -35 -53 -5 0 -12 15 -15 34
-4 19 -13 57 -22 85 -17 59 -12 59 -131 -11 -45 -26 -88 -48 -96 -48 -10 0
-16 15 -20 45 -2 26 -7 49 -11 52 -3 3 -24 1 -47 -6 -22 -7 -42 -11 -44 -9 -1
2 9 42 23 91 14 48 22 90 19 93 -3 3 -36 -15 -74 -40 l-68 -46 -3 95 c-3 98
-11 114 -44 82 -83 -81 -109 -99 -122 -88 -8 7 -13 18 -11 24 20 66 19 67 -36
67 -44 0 -55 4 -83 33 -18 17 -41 55 -51 82 -26 69 -60 122 -85 130 -26 8 -25
12 6 71 45 86 95 124 164 124 58 0 29 25 -73 64 -130 50 -372 164 -752 354
-435 217 -588 284 -827 360 -420 134 -753 143 -1005 27 -169 -78 -336 -225
-516 -452 -53 -67 -123 -144 -155 -171 -115 -95 -273 -177 -450 -233 -93 -29
-103 -34 -99 -53 42 -176 52 -356 28 -471 -16 -73 -69 -187 -111 -238 -66 -79
-166 -128 -260 -129 -160 0 -256 121 -268 337 -13 237 101 396 350 490 26 9
49 23 52 30 3 8 -33 87 -80 177 -46 90 -101 196 -121 236 -21 39 -42 72 -48
72 -5 0 -37 -53 -70 -117 -33 -65 -93 -165 -134 -223 -86 -122 -242 -280 -325
-329 -66 -39 -204 -96 -259 -106 -32 -6 -41 -14 -67 -64 -85 -157 -184 -254
-338 -328 -183 -88 -332 -66 -332 49 1 65 30 117 103 184 89 81 164 120 305
155 64 16 120 33 124 37 18 18 59 195 69 299 23 238 -34 434 -138 474 -75 28
-189 -12 -286 -101 -107 -98 -245 -328 -335 -560 -24 -63 -35 -78 -65 -93 -45
-23 -83 -14 -102 24 -12 23 -15 88 -15 362 0 183 -2 336 -5 339 -3 3 -45 -33
-93 -81 -131 -131 -279 -210 -490 -264 -77 -19 -112 -22 -312 -21 -204 0 -238
3 -365 27 -363 71 -559 139 -1285 447 -313 133 -548 216 -763 271 -416 105
-868 114 -1182 24 -238 -68 -471 -235 -594 -424 -94 -145 -142 -344 -121 -501
12 -89 56 -212 90 -248 11 -12 20 -24 20 -28 0 -3 11 -19 25 -35 26 -32 24
-59 -6 -59 -42 0 -137 172 -165 297 -20 91 -15 265 11 363 81 307 325 546 675
663 283 95 727 102 1135 17 278 -57 517 -140 960 -330 679 -292 1133 -423
1520 -437 90 -3 184 -1 237 6 306 41 537 175 678 393 l37 57 7 168 c35 866
144 1597 306 2058 122 345 298 567 487 615 71 17 174 6 244 -27z m1487 -4972
c46 -23 114 -98 110 -121 -6 -31 -46 -23 -80 16 -69 78 -153 90 -240 35 -53
-33 -78 -81 -78 -145 0 -102 48 -152 232 -240 93 -45 131 -69 182 -119 85 -83
110 -145 104 -267 -5 -106 -33 -166 -112 -237 -69 -63 -124 -83 -231 -83 -71
0 -90 4 -142 30 -90 45 -169 134 -188 213 -8 31 8 57 35 57 13 0 23 -15 36
-52 35 -105 151 -188 264 -188 150 0 280 130 280 280 0 134 -81 228 -274 320
-191 90 -248 154 -250 280 -1 54 4 74 28 118 50 89 134 136 232 128 28 -2 70
-14 92 -25z m-5884 7 c56 -17 132 -94 142 -142 13 -73 0 -143 -36 -187 -32
-40 -32 -43 -15 -55 10 -8 25 -14 32 -14 25 0 141 -127 170 -187 26 -53 28
-67 28 -173 0 -104 -3 -121 -27 -173 -34 -71 -118 -161 -181 -193 -69 -36
-264 -56 -356 -38 l-31 7 0 577 c0 317 3 580 7 583 11 12 224 8 267 -5z m1086
-23 l0 -35 -252 -2 -253 -3 -3 -236 -2 -237 22 -6 c13 -3 128 -6 256 -6 l232
0 0 -30 0 -30 -232 0 c-128 0 -243 -3 -255 -6 l-23 -6 0 -233 0 -233 23 -6
c12 -3 127 -6 255 -6 l232 0 0 -30 0 -30 -290 0 -290 0 0 578 c0 318 3 582 7
585 3 4 134 7 290 7 l283 0 0 -35z m783 -534 c114 -313 207 -577 207 -586 0
-12 -8 -16 -32 -13 l-33 3 -75 207 c-41 114 -80 212 -86 218 -7 7 -77 10 -205
8 l-194 -3 -79 -215 c-43 -118 -80 -216 -81 -218 -1 -2 -15 -4 -31 -5 -19 -1
-29 3 -32 15 -2 13 396 1121 415 1151 2 4 8 7 12 7 4 0 100 -256 214 -569z
m885 560 c8 -4 12 -19 10 -32 -3 -24 -4 -24 -148 -29 l-145 -5 -3 -547 -2
-548 -30 0 -30 0 0 538 c0 295 -4 542 -8 549 -5 9 -51 13 -147 15 -126 3 -140
5 -143 21 -9 47 -12 47 320 47 172 0 319 -4 326 -9z m494 -2 c109 -23 214
-103 263 -200 53 -103 54 -243 3 -348 -30 -63 -111 -141 -180 -175 -51 -25
-56 -30 -47 -48 6 -11 60 -97 121 -191 61 -94 113 -177 115 -184 4 -9 -6 -13
-33 -13 -33 0 -42 5 -60 33 -11 17 -45 70 -75 117 -31 47 -80 122 -109 168
l-53 83 -106 -3 -106 -3 -3 -198 -2 -198 -33 3 -32 3 -1 275 c-1 151 1 413 4
583 l4 307 139 0 c76 0 162 -5 191 -11z m536 -577 l2 -583 -32 3 -32 3 3 575
c1 316 5 578 8 583 3 4 15 7 26 5 l22 -3 3 -583z m971 573 c3 -4 -28 -59 -264
-470 -349 -605 -349 -606 -334 -616 8 -5 148 -9 312 -9 l297 0 0 -30 0 -30
-365 0 c-396 0 -386 -2 -351 53 67 103 595 1031 590 1038 -3 5 -142 9 -310 9
l-304 0 0 28 c0 16 2 31 5 33 5 6 718 -1 724 -6z m4814 0 c74 -19 169 -67 232
-117 175 -139 249 -359 200 -593 -23 -107 -69 -189 -157 -278 -130 -130 -281
-187 -464 -174 -106 8 -177 29 -252 75 -142 88 -230 201 -273 352 -27 92 -26
246 2 334 60 196 217 346 419 402 63 17 224 17 293 -1z m1025 -2 c48 -23 112
-88 112 -113 0 -38 -29 -35 -63 5 -55 68 -140 91 -215 59 -91 -38 -137 -130
-112 -224 15 -55 77 -116 159 -155 31 -15 85 -41 120 -59 76 -36 162 -112 195
-170 84 -147 43 -341 -93 -440 -170 -123 -418 -63 -509 125 -30 62 -29 99 1
99 19 0 26 -8 35 -38 48 -158 252 -243 403 -167 40 21 106 92 129 141 34 68
31 167 -6 240 -40 79 -100 127 -249 200 -71 35 -147 78 -167 96 -128 114 -92
335 67 404 44 19 150 17 193 -3z m-3830 -339 c166 -455 283 -775 289 -796 4
-15 -1 -18 -26 -18 -37 0 -28 -18 -116 230 -40 112 -74 192 -87 203 -17 15
-43 17 -188 17 -93 0 -179 -4 -192 -9 -23 -9 -25 -14 -160 -388 -17 -48 -22
-53 -49 -53 -21 0 -29 5 -29 17 0 9 25 85 56 167 30 83 71 194 91 246 57 154
239 652 254 693 7 20 17 36 23 34 5 -2 65 -156 134 -343z m807 -154 c159 -275
294 -499 300 -497 7 3 11 167 13 501 l2 497 28 -3 27 -3 3 -577 2 -578 -29 0
c-16 0 -34 6 -40 14 -6 8 -51 83 -100 167 -104 181 -239 417 -376 654 -54 94
-100 174 -102 178 -3 5 -10 4 -17 -3 -8 -8 -11 -150 -11 -508 l0 -497 -27 -3
c-21 -3 -27 1 -30 20 -2 13 -2 274 0 581 l2 557 33 0 c33 0 33 -1 322 -500z
m1173 473 c3 -23 3 -23 -136 -23 -113 0 -142 -3 -152 -15 -10 -12 -12 -131 -9
-553 l4 -537 -27 -3 -28 -3 0 543 c0 410 -3 547 -12 556 -8 8 -56 12 -150 12
-127 0 -138 1 -138 18 0 10 3 22 7 25 4 4 149 6 322 5 l316 -3 3 -22z m-5444
-1719 c14 -5 16 -38 16 -259 0 -139 3 -260 6 -269 5 -12 21 -16 75 -16 l69 0
0 -30 0 -31 -117 3 -118 3 -3 294 c-2 229 1 296 10 303 16 9 41 10 62 2z m404
-9 c4 -4 122 -559 122 -578 0 -15 -7 -18 -37 -15 -40 3 -38 -2 -57 111 l-7 37
-52 0 c-29 0 -57 -4 -63 -8 -6 -4 -17 -37 -24 -74 l-12 -68 -39 0 c-22 0 -39
3 -39 8 0 28 126 588 134 594 8 5 64 0 74 -7z m387 1 c41 -17 65 -52 72 -104
5 -35 3 -40 -18 -45 -39 -11 -49 -8 -49 13 0 58 -57 103 -102 79 -31 -16 -38
-28 -38 -68 0 -30 11 -44 91 -120 100 -95 131 -142 131 -207 2 -79 -37 -130
-114 -148 -44 -10 -115 13 -143 46 -22 26 -45 84 -45 115 0 13 58 35 71 27 5
-3 9 -14 9 -25 0 -46 44 -99 83 -99 23 0 57 32 62 59 8 42 -21 86 -109 166
-61 56 -91 92 -102 122 -19 49 -15 110 11 149 32 50 121 68 190 40z m1640 0
c41 -17 65 -52 72 -104 5 -35 3 -40 -18 -45 -37 -10 -38 -10 -49 33 -25 94
-140 88 -140 -7 0 -32 10 -46 104 -137 93 -90 105 -106 114 -149 26 -126 -56
-213 -175 -187 -57 13 -86 41 -106 100 -20 59 -14 75 32 82 21 2 26 -2 32 -29
9 -46 35 -82 64 -89 33 -8 50 -1 71 30 32 49 14 86 -96 192 -81 80 -100 104
-109 140 -32 128 80 222 204 170z m592 -11 c32 -21 53 -72 53 -129 0 -44 0
-44 -32 -42 -31 2 -33 5 -40 50 -3 26 -12 53 -18 61 -32 38 -121 20 -134 -27
-3 -13 -6 -101 -6 -196 0 -190 8 -226 55 -238 67 -17 105 23 108 112 l2 59
-37 3 c-35 3 -38 6 -38 33 l0 29 75 0 76 0 -3 -147 c-3 -144 -4 -148 -25 -151
-17 -3 -24 3 -29 23 l-6 26 -23 -21 c-73 -68 -202 -25 -225 76 -13 54 -12 332
1 392 11 54 39 88 85 102 40 13 131 4 161 -15z m-1992 -7 c3 -13 6 -70 8 -128
l2 -105 64 -3 c45 -2 67 1 72 10 5 7 9 66 9 131 l0 117 45 0 45 0 -2 -297 -3
-298 -40 0 -40 0 -5 135 -5 135 -73 0 -74 0 -1 -135 -2 -135 -40 0 -40 0 -3
298 -2 297 40 0 c33 0 40 -4 45 -22z m764 -12 c44 -42 51 -79 51 -262 0 -194
-12 -241 -68 -276 -32 -20 -50 -23 -137 -23 l-100 0 -3 299 -2 298 114 -3
c111 -4 116 -5 145 -33z m369 7 c-3 -27 -6 -28 -58 -30 -30 -1 -63 -2 -72 -2
-16 -1 -18 -12 -18 -95 0 -106 0 -106 76 -106 44 0 45 -1 42 -27 -3 -27 -6
-28 -61 -31 l-58 -3 3 -107 3 -107 73 -3 72 -3 0 -29 0 -30 -115 0 -115 0 0
300 0 300 116 0 115 0 -3 -27z m510 -270 l-3 -298 -37 -3 -38 -3 0 300 0 301
40 0 40 0 -2 -297z m632 122 c41 -96 81 -177 88 -179 9 -4 12 35 12 174 l0
180 30 0 30 0 0 -212 c0 -117 3 -250 7 -295 5 -73 4 -83 -12 -89 -10 -4 -24
-3 -32 2 -8 5 -47 88 -88 184 -41 96 -78 176 -84 178 -7 2 -11 -59 -13 -180
l-3 -183 -32 -3 -33 -3 0 300 0 301 28 0 c26 0 31 -9 102 -175z m490 150 c0
-24 -2 -25 -63 -25 -36 0 -68 -5 -75 -12 -13 -13 -17 -165 -4 -185 4 -6 32
-13 62 -15 49 -3 55 -5 56 -25 1 -23 -12 -28 -91 -35 l-30 -3 -1 -88 c-2 -129
-5 -126 80 -129 68 -3 71 -4 71 -28 l0 -25 -115 0 -115 0 1 145 c1 80 2 214 3
298 l1 152 110 0 110 0 0 -25z m315 1 c40 -26 58 -79 53 -154 -4 -58 -8 -68
-37 -94 l-32 -29 40 -138 c23 -76 41 -144 41 -150 0 -8 -14 -11 -37 -9 l-38 3
-31 117 c-41 157 -47 170 -82 166 l-27 -3 -5 -140 -5 -140 -35 0 -35 0 -3 299
-2 299 104 -5 c76 -3 112 -9 131 -22z m-4475 -221 c44 -47 21 -137 -38 -150
-70 -15 -125 51 -102 121 14 40 33 53 81 54 25 0 42 -7 59 -25z m4942 -2 c26
-23 25 -96 -2 -123 -27 -27 -90 -27 -115 0 -24 27 -25 93 -1 119 24 26 91 29
118 4z"/>
<path d="M7160 12554 c-218 -69 -402 -467 -524 -1129 -69 -373 -107 -708 -141
-1237 -18 -285 -18 -278 -1 -278 18 0 225 217 321 335 225 280 433 597 555
845 60 123 139 320 174 432 73 236 93 452 58 621 -42 200 -149 358 -275 405
-66 25 -103 26 -167 6z"/>
<path d="M8235 10337 c-25 -39 -38 -127 -32 -222 6 -92 22 -165 36 -165 4 0
20 41 36 91 32 106 44 249 23 288 -17 32 -45 35 -63 8z"/>
<path d="M8330 9069 c-183 -72 -264 -184 -277 -383 -10 -161 29 -266 114 -307
81 -39 167 0 240 109 58 87 75 145 80 289 5 115 -3 198 -27 286 -14 46 -28 47
-130 6z"/>
<path d="M7010 8807 c-99 -30 -163 -66 -242 -137 -95 -86 -122 -168 -63 -190
78 -30 259 97 382 267 64 89 52 98 -77 60z"/>
<path d="M2755 7558 c-3 -8 -4 -75 -3 -149 l3 -134 78 -3 c100 -4 158 20 187
79 37 71 17 141 -53 193 -36 27 -203 38 -212 14z"/>
<path d="M2763 7194 c-10 -4 -13 -79 -13 -324 0 -318 0 -319 22 -331 29 -15
157 -5 223 17 72 25 166 120 194 197 60 163 -14 342 -171 412 -50 23 -80 29
-153 31 -49 2 -96 1 -102 -2z"/>
<path d="M4596 7432 c-17 -28 -155 -429 -151 -439 3 -10 46 -13 165 -13 146 0
160 2 160 18 0 22 -146 422 -159 435 -5 5 -11 5 -15 -1z"/>
<path d="M5935 7559 c-3 -8 -4 -149 -3 -314 l3 -300 121 -3 c160 -3 214 14
296 99 71 74 92 131 86 233 -8 124 -86 232 -196 272 -64 23 -299 33 -307 13z"/>
<path d="M12295 7583 c-218 -31 -415 -230 -445 -453 -17 -121 7 -244 67 -347
42 -74 152 -176 225 -211 148 -71 326 -71 476 0 77 36 187 142 231 223 84 156
87 342 8 500 -46 93 -163 207 -252 246 -88 39 -211 56 -310 42z"/>
<path d="M9572 7437 c-6 -6 -26 -57 -45 -112 -20 -55 -54 -151 -76 -213 -23
-63 -38 -118 -35 -123 3 -5 79 -9 170 -9 152 0 164 1 164 18 0 10 -24 86 -54
168 -30 82 -64 177 -76 212 -25 69 -33 78 -48 59z"/>
<path d="M6606 5698 c-2 -7 -12 -53 -21 -102 -14 -73 -14 -90 -3 -97 21 -14
68 -10 74 6 8 20 -26 205 -37 205 -6 0 -11 -6 -13 -12z"/>
<path d="M7885 5814 c-6 -2 -8 -86 -5 -236 l5 -233 37 -3 c29 -2 43 2 62 21
32 32 39 95 34 278 -3 134 -5 142 -27 160 -21 17 -79 25 -106 13z"/>
<path d="M10214 5817 c-3 -8 -4 -54 -2 -103 l3 -89 44 2 c55 3 81 26 88 81 10
76 -27 122 -98 122 -16 0 -32 -6 -35 -13z"/>
</g>
</svg>
